<?xml version="1.0" standalone="no"?><!-- Generator: Gravit.io --><svg xmlns="http://www.w3.org/2000/svg" xmlns:xlink="http://www.w3.org/1999/xlink" style="isolation:isolate" viewBox="0 0 297.638 419.528" width="297.638" height="419.528"><defs><clipPath id="_clipPath_2IqtdOChdVGk2dvD6SsuJh0l6gw9F8Nf"><rect width="297.638" height="419.528"/></clipPath></defs><g clip-path="url(#_clipPath_2IqtdOChdVGk2dvD6SsuJh0l6gw9F8Nf)"><rect x="118.428" y="389.018" width="30.271" height="21.582" transform="matrix(1,0,0,1,0,0)" fill="rgb(85,145,75)"/><path d=" M 133.847 352.295 C 188.907 307.092 222.819 245.23 222.819 177.056 C 222.819 108.87 188.894 46.997 133.847 1.764 L 133.847 352.295 Z " fill="rgb(85,145,75)"/><line x1="135.418" y1="307.064" x2="187.468" y2="261.393" vector-effect="non-scaling-stroke" stroke-width="5" stroke="rgb(255,255,255)" stroke-linejoin="miter" stroke-linecap="square" stroke-miterlimit="3"/><line x1="188.661" y1="259.115" x2="188.149" y2="227.431" vector-effect="non-scaling-stroke" stroke-width="5" stroke="rgb(255,255,255)" stroke-linejoin="miter" stroke-linecap="square" stroke-miterlimit="3"/><g id="Group"><line x1="135.418" y1="138.399" x2="155.936" y2="114.112" vector-effect="non-scaling-stroke" stroke-width="5" stroke="rgb(255,255,255)" stroke-linejoin="miter" stroke-linecap="square" stroke-miterlimit="3"/><line x1="156.868" y1="111.254" x2="156.529" y2="87.165" vector-effect="non-scaling-stroke" stroke-width="5" stroke="rgb(255,255,255)" stroke-linejoin="miter" stroke-linecap="square" stroke-miterlimit="3"/></g><path d=" M 134 352.295 C 78.94 307.092 45.028 245.23 45.028 177.056 C 45.028 108.87 78.953 46.997 134 1.764 L 134 352.295 Z " fill="rgb(85,145,75)"/><path d=" M 70.812 200 C 70.812 195.033 74.845 191 79.812 191 C 84.779 191 88.812 195.033 88.812 200 C 88.812 204.967 84.779 209 79.812 209 C 74.845 209 70.812 204.967 70.812 200 Z " fill="none" vector-effect="non-scaling-stroke" stroke-width="4" stroke="rgb(255,255,255)" stroke-linejoin="miter" stroke-linecap="square" stroke-miterlimit="3"/><path d=" M 157.812 146 C 157.812 141.033 161.845 137 166.812 137 C 171.779 137 175.812 141.033 175.812 146 C 175.812 150.967 171.779 155 166.812 155 C 161.845 155 157.812 150.967 157.812 146 Z " fill="none" vector-effect="non-scaling-stroke" stroke-width="4" stroke="rgb(255,255,255)" stroke-linejoin="miter" stroke-linecap="square" stroke-miterlimit="3"/><path d=" M 147.812 76 C 147.812 71.033 151.845 67 156.812 67 C 161.779 67 165.812 71.033 165.812 76 C 165.812 80.967 161.779 85 156.812 85 C 151.845 85 147.812 80.967 147.812 76 Z " fill="none" vector-effect="non-scaling-stroke" stroke-width="4" stroke="rgb(255,255,255)" stroke-linejoin="miter" stroke-linecap="square" stroke-miterlimit="3"/><path d=" M 99.812 68 C 99.812 63.033 103.845 59 108.812 59 C 113.779 59 117.812 63.033 117.812 68 C 117.812 72.967 113.779 77 108.812 77 C 103.845 77 99.812 72.967 99.812 68 Z " fill="none" vector-effect="non-scaling-stroke" stroke-width="4" stroke="rgb(255,255,255)" stroke-linejoin="miter" stroke-linecap="square" stroke-miterlimit="3"/><path d=" M 124.812 101 C 124.812 96.033 128.845 92 133.812 92 C 138.779 92 142.812 96.033 142.812 101 C 142.812 105.967 138.779 110 133.812 110 C 128.845 110 124.812 105.967 124.812 101 Z " fill="none" vector-effect="non-scaling-stroke" stroke-width="4" stroke="rgb(255,255,255)" stroke-linejoin="miter" stroke-linecap="square" stroke-miterlimit="3"/><path d=" M 86.812 132 C 86.812 127.033 90.845 123 95.812 123 C 100.779 123 104.812 127.033 104.812 132 C 104.812 136.967 100.779 141 95.812 141 C 90.845 141 86.812 136.967 86.812 132 Z " fill="none" vector-effect="non-scaling-stroke" stroke-width="4" stroke="rgb(255,255,255)" stroke-linejoin="miter" stroke-linecap="square" stroke-miterlimit="3"/><rect x="52.534" y="382.653" width="30.271" height="21.582" transform="matrix(1,0,0,1,0,0)" fill="rgb(85,145,75)"/><rect x="119.538" y="337.56" width="7.087" height="48.332" transform="matrix(1,0,0,1,0,0)" fill="rgb(85,145,75)"/><rect x="97.124" y="378.987" width="29.419" height="7.087" transform="matrix(1,0,0,1,0,0)" fill="rgb(85,145,75)"/><rect x="97.132" y="378.984" width="7.087" height="17.712" transform="matrix(1,0,0,1,0,0)" fill="rgb(85,145,75)"/><rect x="81.991" y="389.614" width="22.11" height="7.087" transform="matrix(1,0,0,1,0,0)" fill="rgb(85,145,75)"/><rect x="184.834" y="382.653" width="30.271" height="21.582" transform="matrix(1,0,0,1,0,0)" fill="rgb(85,145,75)"/><rect x="141.016" y="337.56" width="7.087" height="48.332" transform="matrix(1,0,0,1,0,0)" fill="rgb(85,145,75)"/><rect x="141.096" y="378.987" width="29.419" height="7.087" transform="matrix(1,0,0,1,0,0)" fill="rgb(85,145,75)"/><rect x="163.421" y="378.984" width="7.087" height="17.712" transform="matrix(1,0,0,1,0,0)" fill="rgb(85,145,75)"/><rect x="163.539" y="389.614" width="22.11" height="7.087" transform="matrix(1,0,0,1,0,0)" fill="rgb(85,145,75)"/><line x1="134" y1="350" x2="134" y2="111" vector-effect="non-scaling-stroke" stroke-width="5" stroke="rgb(255,255,255)" stroke-linejoin="miter" stroke-linecap="square" stroke-miterlimit="3"/><g id="Group"><line x1="135.418" y1="223.064" x2="166.468" y2="192.393" vector-effect="non-scaling-stroke" stroke-width="5" stroke="rgb(255,255,255)" stroke-linejoin="miter" stroke-linecap="square" stroke-miterlimit="3"/><line x1="167.473" y1="189.857" x2="166.961" y2="158.173" vector-effect="non-scaling-stroke" stroke-width="5" stroke="rgb(255,255,255)" stroke-linejoin="miter" stroke-linecap="square" stroke-miterlimit="3"/></g><line x1="133" y1="131" x2="109.594" y2="120.304" vector-effect="non-scaling-stroke" stroke-width="5" stroke="rgb(255,255,255)" stroke-linejoin="miter" stroke-linecap="square" stroke-miterlimit="3"/><line x1="108.85" y1="119.093" x2="109.203" y2="78.271" vector-effect="non-scaling-stroke" stroke-width="5" stroke="rgb(255,255,255)" stroke-linejoin="miter" stroke-linecap="square" stroke-miterlimit="3"/><line x1="133" y1="191" x2="96.245" y2="172" vector-effect="non-scaling-stroke" stroke-width="5" stroke="rgb(255,255,255)" stroke-linejoin="miter" stroke-linecap="square" stroke-miterlimit="3"/><line x1="95.479" y1="170.333" x2="95.909" y2="142.333" vector-effect="non-scaling-stroke" stroke-width="5" stroke="rgb(255,255,255)" stroke-linejoin="miter" stroke-linecap="square" stroke-miterlimit="3"/><line x1="133" y1="269" x2="80.245" y2="239" vector-effect="non-scaling-stroke" stroke-width="5" stroke="rgb(255,255,255)" stroke-linejoin="miter" stroke-linecap="square" stroke-miterlimit="3"/><line x1="79.37" y1="237.333" x2="79.8" y2="209.333" vector-effect="non-scaling-stroke" stroke-width="5" stroke="rgb(255,255,255)" stroke-linejoin="miter" stroke-linecap="square" stroke-miterlimit="3"/><path d=" M 179.299 218 C 179.299 213.033 183.332 209 188.299 209 C 193.266 209 197.299 213.033 197.299 218 C 197.299 222.967 193.266 227 188.299 227 C 183.332 227 179.299 222.967 179.299 218 Z " fill="none" vector-effect="non-scaling-stroke" stroke-width="4" stroke="rgb(255,255,255)" stroke-linejoin="miter" stroke-linecap="square" stroke-miterlimit="3"/></g></svg>